<svg width="60" height="60" viewBox="0 0 60 60" fill="none" xmlns="http://www.w3.org/2000/svg">
<path d="M33.4896 14.3272C34.1215 12.9934 34.4058 11.5215 34.316 10.0484C34.2262 8.57521 33.7652 7.1487 32.976 5.90154C32.1868 4.65437 31.095 3.62708 29.8022 2.91523C28.5093 2.20337 27.0574 1.83008 25.5815 1.83008C24.1056 1.83008 22.6537 2.20337 21.3608 2.91523C20.068 3.62708 18.9762 4.65437 18.187 5.90154C17.3978 7.1487 16.9368 8.57521 16.847 10.0484C16.7573 11.5215 17.0415 12.9934 17.6734 14.3272H2.83008V24.1654C4.07101 23.9886 5.33544 24.0804 6.53779 24.4347C7.74015 24.789 8.85236 25.3974 9.79915 26.2189C10.7459 27.0403 11.5052 28.0555 12.0255 29.1959C12.5459 30.3363 12.8152 31.5751 12.8152 32.8286C12.8152 34.082 12.5459 35.3209 12.0255 36.4612C11.5052 37.6016 10.7459 38.6168 9.79915 39.4383C8.85236 40.2597 7.74015 40.8681 6.53779 41.2224C5.33544 41.5767 4.07101 41.6685 2.83008 41.4917V54.8301H17.1684C16.9916 53.5892 17.0835 52.3247 17.4377 51.1224C17.792 49.92 18.4005 48.8078 19.2219 47.861C20.0433 46.9142 21.0586 46.155 22.199 45.6346C23.3393 45.1143 24.5781 44.845 25.8316 44.845C27.0851 44.845 28.3239 45.1143 29.4643 45.6346C30.6046 46.155 31.6199 46.9142 32.4413 47.861C33.2627 48.8078 33.8712 49.92 34.2255 51.1224C34.5797 52.3247 34.6716 53.5892 34.4948 54.8301H46.3329V41.9868C47.6667 42.6186 49.1386 42.9029 50.6118 42.8131C52.0849 42.7233 53.5115 42.2624 54.7586 41.4732C56.0058 40.684 57.0331 39.5922 57.7449 38.2993C58.4568 37.0064 58.8301 35.5545 58.8301 34.0787C58.8301 32.6028 58.4568 31.1509 57.7449 29.858C57.0331 28.5651 56.0058 27.4733 54.7586 26.6841C53.5115 25.8949 52.0849 25.434 50.6118 25.3442C49.1386 25.2544 47.6667 25.5387 46.3329 26.1705V14.3272H33.4896Z" fill="#637BFF"/>
<path d="M18 39V21H20.7273L26.6364 39H29.3636L35.2727 21H35.5M38 39V23.5" stroke="white" stroke-width="2.5" stroke-linecap="square"/>
</svg>
