<svg width="18" height="18" viewBox="0 0 22 22" fill="none" xmlns="http://www.w3.org/2000/svg">
<g id="brightness-1--bright-adjust-brightness-adjustment-sun-raise-controls">
<path id="Vector 2040" d="M3.5 3.5L5.5 5.5" stroke="#020c13" stroke-width="1.5"/>
<path id="Vector 2041" d="M16.5 5.5L18.5 3.5" stroke="#020c13" stroke-width="1.5"/>
<path id="Vector 2042" d="M18.5 18.5L16.5 16.5" stroke="#020c13" stroke-width="1.5"/>
<path id="Vector 2043" d="M5.5 16.5L3.5 18.5" stroke="#020c13" stroke-width="1.5"/>
<path id="Vector 2032" d="M11 0V3" stroke="#020c13" stroke-width="1.5"/>
<path id="Vector 2033" d="M11 19V22" stroke="#020c13" stroke-width="1.5"/>
<path id="Vector 2034" d="M0 11H3" stroke="#020c13" stroke-width="1.5"/>
<path id="Vector 2035" d="M19 11H22" stroke="#020c13" stroke-width="1.5"/>
<path id="Ellipse 7" d="M7.5 11C7.5 11.4596 7.59053 11.9148 7.76642 12.3394C7.94231 12.764 8.20012 13.1499 8.52513 13.4749C8.85013 13.7999 9.23597 14.0577 9.66061 14.2336C10.0852 14.4095 10.5404 14.5 11 14.5C11.4596 14.5 11.9148 14.4095 12.3394 14.2336C12.764 14.0577 13.1499 13.7999 13.4749 13.4749C13.7999 13.1499 14.0577 12.764 14.2336 12.3394C14.4095 11.9148 14.5 11.4596 14.5 11C14.5 10.5404 14.4095 10.0852 14.2336 9.66061C14.0577 9.23597 13.7999 8.85013 13.4749 8.52513C13.1499 8.20012 12.764 7.94231 12.3394 7.76642C11.9148 7.59053 11.4596 7.5 11 7.5C10.5404 7.5 10.0852 7.59053 9.66061 7.76642C9.23597 7.94231 8.85013 8.20012 8.52513 8.52513C8.20012 8.85013 7.94231 9.23597 7.76642 9.66061C7.59053 10.0852 7.5 10.5404 7.5 11Z" stroke="#020c13" stroke-width="1.5"/>
</g>
</svg>
