<svg width="250" height="235" viewBox="0 0 250 235" fill="none" xmlns="http://www.w3.org/2000/svg">
<rect width="250" height="235" fill="#F5F5F5"/>
<path d="M234.794 102.71V28.8291H220.114H205.7V14.5455V0H0V190.74H29.6301V220.08H117.66V234.759H191.03V204.921H220.114L220.124 190.74H250V146.72H220.124V102.71H234.794Z" fill="white"/>
<path d="M161.443 45.3477H175.468V161.288H160.508V46.2827C160.508 45.7684 160.087 45.3477 159.573 45.3477H154.674L113.758 161.288H91.3183L50.4028 45.3477H44.5684V161.288H29.6084V30.3877H60.4634L100.668 144.458H104.408L144.613 30.3877H160.508V44.4127C160.508 44.9269 160.929 45.3477 161.443 45.3477Z" fill="#020C13"/>
</svg>
