<svg width="220" height="207" viewBox="0 0 220 207" fill="none" xmlns="http://www.w3.org/2000/svg">
<rect width="220" height="207" fill="#F5F5F5"/>
<path d="M206.619 90.3845V25.3696H193.701H181.016V12.8V0H0V167.851H26.0745V193.67H103.541V206.588H168.106V180.33H193.701L193.709 167.851H220V129.114H193.709V90.3845H206.619Z" fill="#020C13"/>
<path d="M142.07 39.906H154.412V141.933H141.247V40.7288C141.247 40.2763 140.877 39.906 140.425 39.906H136.113L100.108 141.933H80.3604L44.3547 39.906H39.2204V141.933H26.0557V26.7412H53.208L88.5884 127.123H91.8796L127.26 26.7412H141.247V39.0832C141.247 39.5357 141.618 39.906 142.07 39.906Z" fill="white"/>
</svg>
